<?xml version="1.0" encoding="UTF-8"?>
<!DOCTYPE svg PUBLIC "-//W3C//DTD SVG 1.1//EN" "http://www.w3.org/Graphics/SVG/1.1/DTD/svg11.dtd">
<svg version="1.1" xmlns="http://www.w3.org/2000/svg" xmlns:xlink="http://www.w3.org/1999/xlink" x="0" y="0" width="207.137" height="55.048" viewBox="0, 0, 207.137, 55.048">
  <g id="Main" transform="translate(-71.108, -34.6)">
    <path d="M123.185,55.986 Q122.653,55.302 121.741,54.884 Q120.829,54.466 119.879,54.466 Q118.891,54.466 118.093,54.865 Q117.295,55.264 116.725,55.929 Q116.155,56.594 115.832,57.468 Q115.509,58.342 115.509,59.33 Q115.509,60.318 115.813,61.192 Q116.117,62.066 116.706,62.731 Q117.295,63.396 118.112,63.776 Q118.929,64.156 119.955,64.156 Q120.905,64.156 121.836,63.795 Q122.767,63.434 123.337,62.75 L126.795,66.968 Q125.617,68.108 123.755,68.754 Q121.893,69.4 119.803,69.4 Q117.561,69.4 115.623,68.716 Q113.685,68.032 112.26,66.721 Q110.835,65.41 110.018,63.548 Q109.201,61.686 109.201,59.33 Q109.201,57.012 110.018,55.15 Q110.835,53.288 112.26,51.977 Q113.685,50.666 115.623,49.963 Q117.561,49.26 119.765,49.26 Q120.791,49.26 121.798,49.45 Q122.805,49.64 123.736,49.963 Q124.667,50.286 125.446,50.761 Q126.225,51.236 126.795,51.806 z" fill="#2B3541"/>
    <path d="M140.629,68.792 L140.629,66.17 L140.553,66.17 Q140.211,66.816 139.66,67.386 Q139.109,67.956 138.368,68.374 Q137.627,68.792 136.734,69.058 Q135.841,69.324 134.853,69.324 Q132.953,69.324 131.642,68.64 Q130.331,67.956 129.514,66.873 Q128.697,65.79 128.336,64.403 Q127.975,63.016 127.975,61.572 L127.975,49.868 L134.245,49.868 L134.245,60.128 Q134.245,60.926 134.359,61.648 Q134.473,62.37 134.796,62.94 Q135.119,63.51 135.651,63.833 Q136.183,64.156 137.057,64.156 Q138.691,64.156 139.546,62.94 Q140.401,61.724 140.401,60.09 L140.401,49.868 L146.633,49.868 L146.633,68.792 z" fill="#2B3541"/>
    <path d="M150.473,68.792 L150.473,40.064 L156.781,40.064 L156.781,68.792 z" fill="#2B3541"/>
    <path d="M160.697,68.792 L160.697,40.064 L167.005,40.064 L167.005,68.792 z" fill="#2B3541"/>
    <path d="M183.879,57.164 Q183.879,55.682 182.948,54.618 Q182.017,53.554 180.155,53.554 Q179.243,53.554 178.483,53.839 Q177.723,54.124 177.153,54.618 Q176.583,55.112 176.241,55.777 Q175.899,56.442 175.861,57.164 z M189.617,59.558 Q189.617,59.938 189.617,60.318 Q189.617,60.698 189.579,61.04 L175.861,61.04 Q175.937,61.838 176.336,62.484 Q176.735,63.13 177.362,63.605 Q177.989,64.08 178.768,64.346 Q179.547,64.612 180.383,64.612 Q181.865,64.612 182.891,64.061 Q183.917,63.51 184.563,62.636 L188.895,65.372 Q187.565,67.31 185.38,68.355 Q183.195,69.4 180.307,69.4 Q178.179,69.4 176.279,68.735 Q174.379,68.07 172.954,66.797 Q171.529,65.524 170.712,63.662 Q169.895,61.8 169.895,59.406 Q169.895,57.088 170.693,55.207 Q171.491,53.326 172.859,52.015 Q174.227,50.704 176.089,49.982 Q177.951,49.26 180.117,49.26 Q182.207,49.26 183.955,49.963 Q185.703,50.666 186.957,51.996 Q188.211,53.326 188.914,55.226 Q189.617,57.126 189.617,59.558 z" fill="#2B3541"/>
    <path d="M204.819,68.792 L204.819,58.456 Q204.819,57.658 204.686,56.936 Q204.553,56.214 204.249,55.663 Q203.945,55.112 203.394,54.789 Q202.843,54.466 202.007,54.466 Q201.171,54.466 200.544,54.789 Q199.917,55.112 199.499,55.682 Q199.081,56.252 198.872,56.993 Q198.663,57.734 198.663,58.532 L198.663,68.792 L192.393,68.792 L192.393,49.868 L198.435,49.868 L198.435,52.49 L198.511,52.49 Q198.853,51.882 199.404,51.293 Q199.955,50.704 200.696,50.286 Q201.437,49.868 202.311,49.602 Q203.185,49.336 204.173,49.336 Q206.073,49.336 207.403,50.02 Q208.733,50.704 209.55,51.787 Q210.367,52.87 210.728,54.276 Q211.089,55.682 211.089,57.088 L211.089,68.792 z" fill="#2B3541"/>
    <path d="M229.979,43.826 Q229.979,44.548 229.694,45.175 Q229.409,45.802 228.934,46.258 Q228.459,46.714 227.794,46.98 Q227.129,47.246 226.407,47.246 Q224.887,47.246 223.861,46.239 Q222.835,45.232 222.835,43.826 Q222.835,43.142 223.101,42.515 Q223.367,41.888 223.861,41.432 Q224.355,40.976 225.001,40.691 Q225.647,40.406 226.407,40.406 Q227.129,40.406 227.794,40.672 Q228.459,40.938 228.934,41.394 Q229.409,41.85 229.694,42.477 Q229.979,43.104 229.979,43.826 z M229.523,69.286 Q229.523,71.034 229.2,72.611 Q228.877,74.188 228.041,75.366 Q227.205,76.544 225.723,77.228 Q224.241,77.912 221.961,77.912 Q221.315,77.912 220.555,77.836 Q219.795,77.76 219.263,77.608 L219.681,72.402 Q220.023,72.516 220.384,72.554 Q220.745,72.592 221.011,72.592 Q222.379,72.592 222.835,71.661 Q223.291,70.73 223.291,69.286 L223.291,49.868 L229.523,49.868 z" fill="#2B3541"/>
    <path d="M246.397,57.164 Q246.397,55.682 245.466,54.618 Q244.535,53.554 242.673,53.554 Q241.761,53.554 241.001,53.839 Q240.241,54.124 239.671,54.618 Q239.101,55.112 238.759,55.777 Q238.417,56.442 238.379,57.164 z M252.135,59.558 Q252.135,59.938 252.135,60.318 Q252.135,60.698 252.097,61.04 L238.379,61.04 Q238.455,61.838 238.854,62.484 Q239.253,63.13 239.88,63.605 Q240.507,64.08 241.286,64.346 Q242.065,64.612 242.901,64.612 Q244.383,64.612 245.409,64.061 Q246.435,63.51 247.081,62.636 L251.413,65.372 Q250.083,67.31 247.898,68.355 Q245.713,69.4 242.825,69.4 Q240.697,69.4 238.797,68.735 Q236.897,68.07 235.472,66.797 Q234.047,65.524 233.23,63.662 Q232.413,61.8 232.413,59.406 Q232.413,57.088 233.211,55.207 Q234.009,53.326 235.377,52.015 Q236.745,50.704 238.607,49.982 Q240.469,49.26 242.635,49.26 Q244.725,49.26 246.473,49.963 Q248.221,50.666 249.475,51.996 Q250.729,53.326 251.432,55.226 Q252.135,57.126 252.135,59.558 z" fill="#2B3541"/>
    <path d="M261.675,54.542 L261.675,61.762 Q261.675,63.092 262.188,63.757 Q262.701,64.422 264.031,64.422 Q264.487,64.422 265,64.346 Q265.513,64.27 265.855,64.118 L265.931,68.678 Q265.285,68.906 264.297,69.077 Q263.309,69.248 262.321,69.248 Q260.421,69.248 259.129,68.773 Q257.837,68.298 257.058,67.405 Q256.279,66.512 255.937,65.277 Q255.595,64.042 255.595,62.522 L255.595,54.542 L252.555,54.542 L252.555,49.868 L255.557,49.868 L255.557,44.89 L261.675,44.89 L261.675,49.868 L266.121,49.868 L266.121,54.542 z" fill="#2B3541"/>
    <path d="M273.799,54.542 L273.799,61.762 Q273.799,63.092 274.312,63.757 Q274.825,64.422 276.155,64.422 Q276.611,64.422 277.124,64.346 Q277.637,64.27 277.979,64.118 L278.055,68.678 Q277.409,68.906 276.421,69.077 Q275.433,69.248 274.445,69.248 Q272.545,69.248 271.253,68.773 Q269.961,68.298 269.182,67.405 Q268.403,66.512 268.061,65.277 Q267.719,64.042 267.719,62.522 L267.719,54.542 L264.679,54.542 L264.679,49.868 L267.681,49.868 L267.681,44.89 L273.799,44.89 L273.799,49.868 L278.245,49.868 L278.245,54.542 z" fill="#2B3541"/>
    <path d="M111.3,83.838 L111.3,85.298 L114.04,85.298 L114.04,86.708 L111.3,86.708 L111.3,89.458 L109.61,89.458 L109.61,82.378 L114.27,82.378 L114.27,83.838 z" fill="#00CEE4"/>
    <path d="M121.37,86.788 Q121.37,87.428 121.155,87.953 Q120.94,88.478 120.54,88.853 Q120.14,89.228 119.575,89.438 Q119.01,89.648 118.32,89.648 Q117.62,89.648 117.06,89.438 Q116.5,89.228 116.11,88.853 Q115.72,88.478 115.51,87.953 Q115.3,87.428 115.3,86.788 L115.3,82.378 L117,82.378 L117,86.648 Q117,86.938 117.075,87.198 Q117.15,87.458 117.305,87.663 Q117.46,87.868 117.715,87.988 Q117.97,88.108 118.33,88.108 Q118.69,88.108 118.945,87.988 Q119.2,87.868 119.36,87.663 Q119.52,87.458 119.59,87.198 Q119.66,86.938 119.66,86.648 L119.66,82.378 L121.37,82.378 z" fill="#00CEE4"/>
    <path d="M122.75,89.458 L122.75,82.378 L124.47,82.378 L124.47,87.968 L127.21,87.968 L127.21,89.458 z" fill="#00CEE4"/>
    <path d="M128.01,89.458 L128.01,82.378 L129.73,82.378 L129.73,87.968 L132.47,87.968 L132.47,89.458 z" fill="#00CEE4"/>
    <path d="M139.27,84.218 Q139.05,83.938 138.695,83.773 Q138.34,83.608 138.01,83.608 Q137.84,83.608 137.665,83.638 Q137.49,83.668 137.35,83.753 Q137.21,83.838 137.115,83.973 Q137.02,84.108 137.02,84.318 Q137.02,84.498 137.095,84.618 Q137.17,84.738 137.315,84.828 Q137.46,84.918 137.66,84.993 Q137.86,85.068 138.11,85.148 Q138.47,85.268 138.86,85.413 Q139.25,85.558 139.57,85.798 Q139.89,86.038 140.1,86.393 Q140.31,86.748 140.31,87.278 Q140.31,87.888 140.085,88.333 Q139.86,88.778 139.48,89.068 Q139.1,89.358 138.61,89.498 Q138.12,89.638 137.6,89.638 Q136.84,89.638 136.13,89.373 Q135.42,89.108 134.95,88.618 L136.07,87.478 Q136.33,87.798 136.755,88.013 Q137.18,88.228 137.6,88.228 Q137.79,88.228 137.97,88.188 Q138.15,88.148 138.285,88.058 Q138.42,87.968 138.5,87.818 Q138.58,87.668 138.58,87.458 Q138.58,87.258 138.48,87.118 Q138.38,86.978 138.195,86.863 Q138.01,86.748 137.735,86.653 Q137.46,86.558 137.11,86.448 Q136.77,86.338 136.445,86.188 Q136.12,86.038 135.865,85.803 Q135.61,85.568 135.455,85.233 Q135.3,84.898 135.3,84.418 Q135.3,83.828 135.54,83.408 Q135.78,82.988 136.17,82.718 Q136.56,82.448 137.05,82.323 Q137.54,82.198 138.04,82.198 Q138.64,82.198 139.265,82.418 Q139.89,82.638 140.36,83.068 z" fill="#00CEE4"/>
    <path d="M144.34,83.838 L144.34,89.458 L142.63,89.458 L142.63,83.838 L140.63,83.838 L140.63,82.378 L146.34,82.378 L146.34,83.838 z" fill="#00CEE4"/>
    <path d="M151.32,89.458 L150.77,88.068 L148.03,88.068 L147.51,89.458 L145.65,89.458 L148.62,82.378 L150.28,82.378 L153.22,89.458 z M149.42,84.268 L148.52,86.698 L150.3,86.698 z" fill="#00CEE4"/>
    <path d="M159.86,88.478 Q159.39,89.018 158.7,89.333 Q158.01,89.648 157.11,89.648 Q156.29,89.648 155.595,89.378 Q154.9,89.108 154.39,88.613 Q153.88,88.118 153.59,87.428 Q153.3,86.738 153.3,85.908 Q153.3,85.058 153.595,84.368 Q153.89,83.678 154.41,83.193 Q154.93,82.708 155.63,82.448 Q156.33,82.188 157.14,82.188 Q157.89,82.188 158.615,82.453 Q159.34,82.718 159.79,83.228 L158.63,84.388 Q158.39,84.058 158,83.898 Q157.61,83.738 157.2,83.738 Q156.75,83.738 156.375,83.903 Q156,84.068 155.73,84.358 Q155.46,84.648 155.31,85.043 Q155.16,85.438 155.16,85.908 Q155.16,86.388 155.31,86.788 Q155.46,87.188 155.725,87.473 Q155.99,87.758 156.36,87.918 Q156.73,88.078 157.17,88.078 Q157.68,88.078 158.06,87.878 Q158.44,87.678 158.67,87.358 z" fill="#00CEE4"/>
    <path d="M164.92,89.458 L162.29,86.198 L162.27,86.198 L162.27,89.458 L160.59,89.458 L160.59,82.378 L162.27,82.378 L162.27,85.258 L162.3,85.258 L164.83,82.378 L166.97,82.378 L163.92,85.638 L167.15,89.458 z" fill="#00CEE4"/>
    <path d="M176.69,85.898 Q176.69,86.828 176.345,87.503 Q176,88.178 175.435,88.613 Q174.87,89.048 174.16,89.253 Q173.45,89.458 172.72,89.458 L170.08,89.458 L170.08,82.378 L172.64,82.378 Q173.39,82.378 174.12,82.553 Q174.85,82.728 175.42,83.133 Q175.99,83.538 176.34,84.218 Q176.69,84.898 176.69,85.898 z M174.91,85.898 Q174.91,85.298 174.715,84.903 Q174.52,84.508 174.195,84.273 Q173.87,84.038 173.455,83.938 Q173.04,83.838 172.6,83.838 L171.75,83.838 L171.75,87.978 L172.56,87.978 Q173.02,87.978 173.445,87.873 Q173.87,87.768 174.195,87.528 Q174.52,87.288 174.715,86.888 Q174.91,86.488 174.91,85.898 z" fill="#00CEE4"/>
    <path d="M177.82,89.458 L177.82,82.378 L182.58,82.378 L182.58,83.828 L179.47,83.828 L179.47,85.158 L182.41,85.158 L182.41,86.528 L179.47,86.528 L179.47,87.998 L182.76,87.998 L182.76,89.458 z" fill="#00CEE4"/>
    <path d="M187.4,89.458 L185.69,89.458 L183.01,82.378 L184.93,82.378 L186.57,87.398 L186.61,87.398 L188.24,82.378 L190.13,82.378 z" fill="#00CEE4"/>
    <path d="M190.71,89.458 L190.71,82.378 L195.47,82.378 L195.47,83.828 L192.36,83.828 L192.36,85.158 L195.3,85.158 L195.3,86.528 L192.36,86.528 L192.36,87.998 L195.65,87.998 L195.65,89.458 z" fill="#00CEE4"/>
    <path d="M196.78,89.458 L196.78,82.378 L198.5,82.378 L198.5,87.968 L201.24,87.968 L201.24,89.458 z" fill="#00CEE4"/>
    <path d="M209.12,85.888 Q209.12,86.728 208.83,87.423 Q208.54,88.118 208.025,88.613 Q207.51,89.108 206.8,89.378 Q206.09,89.648 205.26,89.648 Q204.43,89.648 203.725,89.378 Q203.02,89.108 202.505,88.613 Q201.99,88.118 201.7,87.423 Q201.41,86.728 201.41,85.888 Q201.41,85.038 201.7,84.353 Q201.99,83.668 202.505,83.188 Q203.02,82.708 203.725,82.448 Q204.43,82.188 205.26,82.188 Q206.09,82.188 206.8,82.448 Q207.51,82.708 208.025,83.188 Q208.54,83.668 208.83,84.353 Q209.12,85.038 209.12,85.888 z M207.29,85.888 Q207.29,85.428 207.14,85.028 Q206.99,84.628 206.725,84.343 Q206.46,84.058 206.085,83.893 Q205.71,83.728 205.26,83.728 Q204.81,83.728 204.44,83.893 Q204.07,84.058 203.8,84.343 Q203.53,84.628 203.385,85.028 Q203.24,85.428 203.24,85.888 Q203.24,86.368 203.39,86.773 Q203.54,87.178 203.805,87.468 Q204.07,87.758 204.44,87.923 Q204.81,88.088 205.26,88.088 Q205.71,88.088 206.08,87.923 Q206.45,87.758 206.72,87.468 Q206.99,87.178 207.14,86.773 Q207.29,86.368 207.29,85.888 z" fill="#00CEE4"/>
    <path d="M215.62,84.558 Q215.62,85.178 215.39,85.603 Q215.16,86.028 214.77,86.288 Q214.38,86.548 213.87,86.668 Q213.36,86.788 212.81,86.788 L211.96,86.788 L211.96,89.458 L210.25,89.458 L210.25,82.378 L212.85,82.378 Q213.43,82.378 213.935,82.493 Q214.44,82.608 214.815,82.863 Q215.19,83.118 215.405,83.533 Q215.62,83.948 215.62,84.558 z M213.91,84.568 Q213.91,84.318 213.81,84.158 Q213.71,83.998 213.54,83.908 Q213.37,83.818 213.155,83.788 Q212.94,83.758 212.71,83.758 L211.96,83.758 L211.96,85.428 L212.68,85.428 Q212.92,85.428 213.14,85.388 Q213.36,85.348 213.535,85.248 Q213.71,85.148 213.81,84.983 Q213.91,84.818 213.91,84.568 z" fill="#00CEE4"/>
    <path d="M216.65,89.458 L216.65,82.378 L221.41,82.378 L221.41,83.828 L218.3,83.828 L218.3,85.158 L221.24,85.158 L221.24,86.528 L218.3,86.528 L218.3,87.998 L221.59,87.998 L221.59,89.458 z" fill="#00CEE4"/>
    <path d="M226.51,89.458 L224.98,86.648 L224.4,86.648 L224.4,89.458 L222.72,89.458 L222.72,82.378 L225.42,82.378 Q225.93,82.378 226.415,82.483 Q226.9,82.588 227.285,82.838 Q227.67,83.088 227.9,83.498 Q228.13,83.908 228.13,84.518 Q228.13,85.238 227.74,85.728 Q227.35,86.218 226.66,86.428 L228.51,89.458 z M226.44,84.548 Q226.44,84.298 226.335,84.143 Q226.23,83.988 226.065,83.903 Q225.9,83.818 225.695,83.788 Q225.49,83.758 225.3,83.758 L224.39,83.758 L224.39,85.408 L225.2,85.408 Q225.41,85.408 225.63,85.373 Q225.85,85.338 226.03,85.248 Q226.21,85.158 226.325,84.988 Q226.44,84.818 226.44,84.548 z" fill="#00CEE4"/>
    <path d="M92.008,40.1 Q95.288,40.1 98.208,41.16 Q101.128,42.22 103.088,44.02 L97.248,51.06 Q96.448,50.02 95.248,49.48 Q94.048,48.94 92.568,48.94 C91.121,49.071 92.061,48.798 90.859,49.149 L86.142,41.335 L81.812,43.741 L86.367,52.444 L77.178,52.428 L77.148,57.866 L86.351,57.882 L82.023,66.35 L86.429,68.897 L90.969,60.852 C92.012,61.159 91.202,60.973 92.568,61.1 Q94.208,61.1 95.388,60.42 Q96.568,59.74 97.248,58.82 L103.088,65.82 Q101.168,67.74 98.368,68.88 Q95.568,70.02 92.008,70.02 Q88.808,70.02 85.988,68.94 Q83.168,67.86 81.088,65.88 Q79.008,63.9 77.808,61.16 Q76.608,58.42 76.608,55.06 Q76.608,51.66 77.808,48.9 Q79.008,46.14 81.088,44.18 Q83.168,42.22 85.988,41.16 Q88.448,40.116 91.648,40.116 z" fill-opacity="0" stroke="#2B3541" stroke-width="2"/>
    <path d="M86.142,41.491 C86.562,41.477 94.188,55.008 94.188,55.008 L90.969,60.852 C90.969,60.852 86.929,68.866 86.562,68.945 C86.196,69.025 82.171,66.628 82.023,66.365 C81.875,66.102 86.351,57.944 86.351,57.944 L77.148,57.928 L77.178,52.522 L86.367,52.537 C86.367,52.537 81.936,44.728 81.812,43.884 C81.688,43.039 85.722,41.505 86.142,41.491 z" fill-opacity="0" stroke="#2B3541" stroke-width="2"/>
  </g>
</svg>

